<svg width="16" height="16" viewBox="0 0 16 16" fill="none" xmlns="http://www.w3.org/2000/svg">
<path d="M7.99999 10.88V8.00005M7.99999 5.12005H8.00719M0.799988 5.49642V10.5037C0.799988 10.6798 0.799988 10.7678 0.819881 10.8507C0.837519 10.9242 0.86661 10.9944 0.906087 11.0588C0.950613 11.1315 1.01288 11.1937 1.1374 11.3183L4.68177 14.8626C4.8063 14.9872 4.86856 15.0494 4.94122 15.0939C5.00564 15.1334 5.07587 15.1625 5.14934 15.1802C5.2322 15.2 5.32026 15.2 5.49636 15.2H10.5036C10.6797 15.2 10.7678 15.2 10.8506 15.1802C10.9241 15.1625 10.9943 15.1334 11.0588 15.0939C11.1314 15.0494 11.1937 14.9872 11.3182 14.8626L14.8626 11.3183C14.9871 11.1937 15.0494 11.1315 15.0939 11.0588C15.1334 10.9944 15.1625 10.9242 15.1801 10.8507C15.2 10.7678 15.2 10.6798 15.2 10.5037V5.49642C15.2 5.32032 15.2 5.23226 15.1801 5.1494C15.1625 5.07594 15.1334 5.0057 15.0939 4.94128C15.0494 4.86862 14.9871 4.80636 14.8626 4.68184L11.3182 1.13746C11.1937 1.01294 11.1314 0.950674 11.0588 0.906148C10.9943 0.866671 10.9241 0.83758 10.8506 0.819942C10.7678 0.800049 10.6797 0.800049 10.5036 0.800049H5.49636C5.32026 0.800049 5.2322 0.800049 5.14934 0.819942C5.07587 0.83758 5.00564 0.866671 4.94122 0.906148C4.86856 0.950674 4.8063 1.01294 4.68177 1.13746L1.1374 4.68184C1.01288 4.80636 0.950613 4.86862 0.906087 4.94128C0.86661 5.0057 0.837519 5.07594 0.819881 5.1494C0.799988 5.23226 0.799988 5.32032 0.799988 5.49642Z" stroke="#FF8236" stroke-width="1.5" stroke-linecap="round" stroke-linejoin="round"/>
</svg>
